<svg width="24" height="25" viewBox="0 0 24 25" fill="none" xmlns="http://www.w3.org/2000/svg">
<path d="M0 12.0913C0 18.7187 5.37258 24.0913 12 24.0913C18.6274 24.0913 24 18.7187 24 12.0913C24 5.46389 18.6274 0.0913086 12 0.0913086C5.37258 0.0913086 0 5.46389 0 12.0913Z" fill="#F58634"/>
<path d="M18 12.0913C18 8.79131 15.3 6.09131 12 6.09131C8.7 6.09131 6 8.79131 6 12.0913C6 15.0913 8.175 17.5663 11.025 18.0163V13.8163H9.525V12.0913H11.025V10.7413C11.025 9.24131 11.925 8.41631 13.275 8.41631C13.95 8.41631 14.625 8.56631 14.625 8.56631V10.0663H13.875C13.125 10.0663 12.9 10.5163 12.9 10.9663V12.0913H14.55L14.25 13.8163H12.825V18.0913C15.825 17.6413 18 15.0913 18 12.0913Z" fill="white"/>
</svg>
