<svg width="24" height="25" viewBox="0 0 24 25" fill="none" xmlns="http://www.w3.org/2000/svg">
<path d="M0 12.0913C0 18.7187 5.37258 24.0913 12 24.0913C18.6274 24.0913 24 18.7187 24 12.0913C24 5.46389 18.6274 0.0913086 12 0.0913086C5.37258 0.0913086 0 5.46389 0 12.0913Z" fill="#F58634"/>
<path d="M12 6.99133C13.65 6.99133 13.875 6.99133 14.55 6.99133C15.15 6.99133 15.45 7.14133 15.675 7.21633C15.975 7.36633 16.2 7.44133 16.425 7.66633C16.65 7.89133 16.8 8.11633 16.875 8.41633C16.95 8.64133 17.025 8.94133 17.1 9.54133C17.1 10.2163 17.1 10.3663 17.1 12.0913C17.1 13.8163 17.1 13.9663 17.1 14.6413C17.1 15.2413 16.95 15.5413 16.875 15.7663C16.725 16.0663 16.65 16.2913 16.425 16.5163C16.2 16.7413 15.975 16.8913 15.675 16.9663C15.45 17.0413 15.15 17.1163 14.55 17.1913C13.875 17.1913 13.725 17.1913 12 17.1913C10.275 17.1913 10.125 17.1913 9.45002 17.1913C8.85002 17.1913 8.55002 17.0413 8.32502 16.9663C8.02502 16.8163 7.80002 16.7413 7.57502 16.5163C7.35002 16.2913 7.20002 16.0663 7.12502 15.7663C7.05002 15.5413 6.97502 15.2413 6.90002 14.6413C6.90002 13.9663 6.90002 13.8163 6.90002 12.0913C6.90002 10.3663 6.90002 10.2163 6.90002 9.54133C6.90002 8.94133 7.05002 8.64133 7.12502 8.41633C7.27502 8.11633 7.35002 7.89133 7.57502 7.66633C7.80002 7.44133 8.02502 7.29133 8.32502 7.21633C8.55002 7.14133 8.85002 7.06633 9.45002 6.99133C10.125 6.99133 10.35 6.99133 12 6.99133ZM12 5.86633C10.275 5.86633 10.125 5.86633 9.45002 5.86633C8.77502 5.86633 8.32502 6.01633 7.95002 6.16633C7.57502 6.31633 7.20002 6.54133 6.82502 6.91633C6.45002 7.29133 6.30002 7.59133 6.07502 8.04133C5.92502 8.41633 5.85002 8.86633 5.77502 9.54133C5.77502 10.2163 5.77502 10.4413 5.77502 12.0913C5.77502 13.8163 5.77502 13.9663 5.77502 14.6413C5.77502 15.3163 5.92502 15.7663 6.07502 16.1413C6.22502 16.5163 6.45002 16.8913 6.82502 17.2663C7.20002 17.6413 7.50002 17.7913 7.95002 18.0163C8.32502 18.1663 8.77502 18.2413 9.45002 18.3163C10.125 18.3163 10.35 18.3163 12 18.3163C13.65 18.3163 13.875 18.3163 14.55 18.3163C15.225 18.3163 15.675 18.1663 16.05 18.0163C16.425 17.8663 16.8 17.6413 17.175 17.2663C17.55 16.8913 17.7 16.5913 17.925 16.1413C18.075 15.7663 18.15 15.3163 18.225 14.6413C18.225 13.9663 18.225 13.7413 18.225 12.0913C18.225 10.4413 18.225 10.2163 18.225 9.54133C18.225 8.86633 18.075 8.41633 17.925 8.04133C17.775 7.66633 17.55 7.29133 17.175 6.91633C16.8 6.54133 16.5 6.39133 16.05 6.16633C15.675 6.01633 15.225 5.94133 14.55 5.86633C13.875 5.86633 13.725 5.86633 12 5.86633Z" fill="white"/>
<path d="M12 8.86633C10.2 8.86633 8.77502 10.2913 8.77502 12.0913C8.77502 13.8913 10.2 15.3163 12 15.3163C13.8 15.3163 15.225 13.8913 15.225 12.0913C15.225 10.2913 13.8 8.86633 12 8.86633ZM12 14.1913C10.875 14.1913 9.90002 13.2913 9.90002 12.0913C9.90002 10.9663 10.8 9.99133 12 9.99133C13.125 9.99133 14.1 10.8913 14.1 12.0913C14.1 13.2163 13.125 14.1913 12 14.1913Z" fill="white"/>
<path d="M15.3 9.54133C15.7142 9.54133 16.05 9.20555 16.05 8.79133C16.05 8.37712 15.7142 8.04133 15.3 8.04133C14.8858 8.04133 14.55 8.37712 14.55 8.79133C14.55 9.20555 14.8858 9.54133 15.3 9.54133Z" fill="white"/>
</svg>
