<svg width="24" height="25" viewBox="0 0 24 25" fill="none" xmlns="http://www.w3.org/2000/svg">
<path d="M0 12.0913C0 18.7187 5.37258 24.0913 12 24.0913C18.6274 24.0913 24 18.7187 24 12.0913C24 5.46389 18.6274 0.0913086 12 0.0913086C5.37258 0.0913086 0 5.46389 0 12.0913Z" fill="#F58634"/>
<path d="M8.7 18.0913H6.15V10.0663H8.7V18.0913ZM7.425 8.94131C6.6 8.94131 6 8.34131 6 7.51631C6 6.69131 6.675 6.09131 7.425 6.09131C8.25 6.09131 8.85 6.69131 8.85 7.51631C8.85 8.34131 8.25 8.94131 7.425 8.94131ZM18 18.0913H15.45V13.7413C15.45 12.4663 14.925 12.0913 14.175 12.0913C13.425 12.0913 12.675 12.6913 12.675 13.8163V18.0913H10.125V10.0663H12.525V11.1913C12.75 10.6663 13.65 9.84131 14.925 9.84131C16.35 9.84131 17.85 10.6663 17.85 13.1413V18.0913H18Z" fill="white"/>
</svg>
