<svg width="365" height="218" viewBox="0 0 365 218" fill="none" xmlns="http://www.w3.org/2000/svg">
<path d="M364.667 0.542969H0.898438V217.554H364.667V0.542969Z" fill="#3D2D3D"/>
<path fill-rule="evenodd" clip-rule="evenodd" d="M160.68 102.454L181.993 118.441L168.74 132.122L168.647 132.084L152.635 148.466L103.846 99.4354C86.7977 80.3314 105.288 46.0783 135.331 54.01L135.572 39.3489V19.8805L151.98 34.271V64.1724C151.394 72.8611 145.996 75.6414 140.726 74.9626C138.318 74.7777 135.867 73.8779 133.89 72.2765C125.539 65.2655 110.334 75.4002 117.065 88.1388L152.635 124.673L156.788 120.728L162.043 115.129L167.298 109.531L160.68 102.454Z" fill="#FEFEFE"/>
<path fill-rule="evenodd" clip-rule="evenodd" d="M63.7403 154.021C66.8418 154.021 69.6088 154.666 72.0436 155.956C74.4776 157.246 76.3689 159.041 77.7167 161.346C79.0637 163.65 79.7372 166.28 79.7372 169.236C79.7372 172.192 79.0489 174.822 77.6732 177.126C76.2967 179.43 74.3763 181.227 71.9132 182.516C69.4497 183.806 66.6392 184.451 63.4796 184.451H50.8291V154.021H63.7403ZM63.9142 178.669C65.5957 178.669 67.1098 178.271 68.4568 177.474C69.8046 176.676 70.8553 175.569 71.6089 174.148C72.3626 172.728 72.7394 171.105 72.7394 169.28C72.7394 167.454 72.3407 165.816 71.5439 164.368C70.7468 162.919 69.6598 161.795 68.283 160.998C66.9072 160.201 65.3489 159.802 63.6099 159.802H57.698V178.669H63.9142Z" fill="#FEFEFE"/>
<path fill-rule="evenodd" clip-rule="evenodd" d="M90.8239 165.28C91.6354 163.832 92.6937 162.73 93.998 161.976C95.3012 161.223 96.8228 160.832 98.5622 160.802V167.106C98.3305 167.077 97.9824 167.062 97.5187 167.062C95.4607 167.062 93.8313 167.62 92.6283 168.736C91.4257 169.852 90.8239 171.337 90.8239 173.192V184.451H84.1289V161.063H90.8239V165.28Z" fill="#FEFEFE"/>
<path fill-rule="evenodd" clip-rule="evenodd" d="M112.256 160.846C116.023 160.846 118.885 161.933 120.841 164.107C122.798 166.28 123.776 169.309 123.776 173.192C123.776 173.888 123.762 174.424 123.733 174.801H106.953C107.33 176.278 108.053 177.43 109.126 178.256C110.198 179.082 111.488 179.495 112.995 179.495C114.096 179.495 115.154 179.285 116.168 178.865C117.183 178.445 118.096 177.829 118.907 177.017L122.428 180.582C121.24 181.915 119.798 182.937 118.103 183.646C116.408 184.356 114.516 184.712 112.43 184.712C109.966 184.712 107.814 184.219 105.974 183.234C104.134 182.248 102.714 180.857 101.715 179.06C100.715 177.263 100.215 175.192 100.215 172.844C100.215 170.467 100.722 168.374 101.737 166.562C102.75 164.751 104.171 163.346 105.996 162.346C107.822 161.346 109.909 160.846 112.256 160.846ZM117.473 170.844C117.415 169.309 116.922 168.077 115.994 167.149C115.067 166.222 113.835 165.758 112.3 165.758C110.85 165.758 109.64 166.214 108.669 167.128C107.698 168.041 107.083 169.28 106.823 170.844H117.473Z" fill="#FEFEFE"/>
<path fill-rule="evenodd" clip-rule="evenodd" d="M141.736 184.451V181.712C140.953 182.697 139.939 183.451 138.693 183.973C137.447 184.494 136.012 184.755 134.389 184.755C131.926 184.755 129.97 184.081 128.521 182.733C127.072 181.387 126.348 179.626 126.348 177.452C126.348 175.25 127.123 173.533 128.673 172.301C130.223 171.068 132.419 170.438 135.259 170.409H141.693V169.975C141.693 168.729 141.279 167.765 140.453 167.084C139.627 166.403 138.418 166.062 136.824 166.062C134.65 166.062 132.332 166.744 129.868 168.106L127.783 163.498C129.637 162.571 131.376 161.889 132.999 161.455C134.621 161.02 136.404 160.802 138.346 160.802C141.475 160.802 143.903 161.542 145.626 163.02C147.351 164.498 148.228 166.555 148.257 169.193L148.3 184.451H141.736ZM136.259 179.973C137.65 179.973 138.853 179.64 139.866 178.973C140.881 178.307 141.49 177.466 141.693 176.452V174.366H136.433C135.128 174.366 134.164 174.576 133.541 174.996C132.919 175.417 132.608 176.09 132.608 177.017C132.608 177.915 132.933 178.633 133.585 179.169C134.237 179.705 135.128 179.973 136.259 179.973Z" fill="#FEFEFE"/>
<path fill-rule="evenodd" clip-rule="evenodd" d="M185.041 160.802C187.619 160.802 189.67 161.607 191.192 163.215C192.714 164.823 193.473 167.004 193.473 169.758V184.451H186.823V171.714C186.823 170.207 186.417 169.034 185.606 168.193C184.794 167.352 183.693 166.932 182.301 166.932C180.708 166.961 179.447 167.526 178.52 168.628C177.592 169.729 177.128 171.149 177.128 172.888V184.451H170.478V171.714C170.478 170.236 170.08 169.069 169.283 168.214C168.485 167.36 167.391 166.932 166 166.932C164.407 166.961 163.139 167.526 162.197 168.628C161.254 169.729 160.783 171.149 160.783 172.888V184.451H154.089V161.063H160.783V165.105C162.407 162.295 165.043 160.86 168.696 160.802C170.666 160.802 172.332 161.273 173.694 162.215C175.057 163.158 176.028 164.484 176.607 166.192C177.36 164.426 178.454 163.092 179.889 162.194C181.324 161.295 183.04 160.832 185.041 160.802Z" fill="#FEFEFE"/>
<path fill-rule="evenodd" clip-rule="evenodd" d="M199.389 154.021H207.04L216.516 172.714L225.907 154.021H233.513V184.451H227.341V163.89L218.69 181.365H214.256L205.561 163.89V184.451H199.389V154.021Z" fill="#FEFEFE"/>
<path fill-rule="evenodd" clip-rule="evenodd" d="M253.68 184.451V181.712C252.898 182.697 251.884 183.451 250.638 183.973C249.392 184.494 247.957 184.755 246.333 184.755C243.871 184.755 241.914 184.081 240.465 182.733C239.016 181.387 238.292 179.626 238.292 177.452C238.292 175.25 239.067 173.533 240.617 172.301C242.168 171.068 244.364 170.438 247.203 170.409H253.637V169.975C253.637 168.729 253.224 167.765 252.398 167.084C251.571 166.403 250.363 166.062 248.768 166.062C246.594 166.062 244.277 166.744 241.813 168.106L239.727 163.498C241.581 162.571 243.32 161.889 244.943 161.455C246.565 161.02 248.348 160.802 250.29 160.802C253.42 160.802 255.847 161.542 257.571 163.02C259.295 164.498 260.172 166.555 260.201 169.193L260.245 184.451H253.68ZM248.203 179.973C249.594 179.973 250.797 179.64 251.811 178.973C252.825 178.307 253.434 177.466 253.637 176.452V174.366H248.377C247.073 174.366 246.109 174.576 245.486 174.996C244.863 175.417 244.552 176.09 244.552 177.017C244.552 177.915 244.878 178.633 245.529 179.169C246.181 179.705 247.073 179.973 248.203 179.973Z" fill="#FEFEFE"/>
<path fill-rule="evenodd" clip-rule="evenodd" d="M280.51 183.147C279.641 183.668 278.677 184.067 277.619 184.342C276.562 184.617 275.497 184.755 274.424 184.755C272.25 184.755 270.483 184.132 269.121 182.885C267.759 181.639 267.078 179.857 267.078 177.539V166.714H263.817V162.107H267.078V155.673H273.729V162.107H280.076V166.758H273.729V176.408C273.729 178.206 274.439 179.104 275.859 179.104C276.845 179.104 277.931 178.814 279.119 178.234L280.51 183.147Z" fill="#FEFEFE"/>
<path fill-rule="evenodd" clip-rule="evenodd" d="M294.585 160.846C298.353 160.846 301.214 161.933 303.17 164.107C305.127 166.28 306.105 169.309 306.105 173.192C306.105 173.888 306.091 174.424 306.062 174.801H289.282C289.659 176.278 290.382 177.43 291.455 178.256C292.527 179.082 293.817 179.495 295.324 179.495C296.425 179.495 297.483 179.285 298.497 178.865C299.512 178.445 300.425 177.829 301.235 177.017L304.757 180.582C303.569 181.915 302.127 182.937 300.432 183.646C298.737 184.356 296.845 184.712 294.759 184.712C292.295 184.712 290.143 184.219 288.304 183.234C286.463 182.248 285.043 180.857 284.044 179.06C283.044 177.263 282.544 175.192 282.544 172.844C282.544 170.467 283.051 168.374 284.066 166.562C285.079 164.751 286.499 163.346 288.325 162.346C290.15 161.346 292.237 160.846 294.585 160.846ZM299.802 170.844C299.744 169.309 299.251 168.077 298.323 167.149C297.396 166.222 296.164 165.758 294.629 165.758C293.18 165.758 291.969 166.214 290.998 167.128C290.027 168.041 289.412 169.28 289.152 170.844H299.802Z" fill="#FEFEFE"/>
<path fill-rule="evenodd" clip-rule="evenodd" d="M207.276 148.157L207.346 122.33L240.877 91.7437C251.096 81.7953 236.994 64.9344 224.404 74.1981L207.266 89.7652L190.13 74.1981C179.471 65.0663 163.239 79.2456 173.655 91.7437L191.098 109.049L180.174 120.295C170.673 112.765 167.847 110.306 159.882 101.855C150.064 91.4285 149.901 77.3177 154.962 67.9913C162.918 54.0728 187.71 43.4758 207.266 64.9178C223.617 45.2053 249.012 52.6801 258.804 66.413C264.733 73.1572 268.783 89.8015 256.518 102.959L207.276 148.157Z" fill="#FEFEFE"/>
</svg>
