<svg width="365" height="218" viewBox="0 0 365 218" fill="none" xmlns="http://www.w3.org/2000/svg">
<path d="M364.667 0.985107H0.898926V217.996H364.667V0.985107Z" fill="#F58634"/>
<path fill-rule="evenodd" clip-rule="evenodd" d="M159.939 99.4387L181.252 115.425L167.999 129.107L167.906 129.068L151.894 145.451L103.105 96.42C86.0565 77.316 104.546 43.0629 134.59 50.9946L134.831 36.3335V16.8651L151.239 31.2557V61.157C150.652 69.8458 145.255 72.626 139.984 71.9472C137.577 71.7624 135.125 70.8625 133.148 69.2611C124.797 62.2501 109.593 72.3849 116.323 85.1234L151.894 121.657L156.047 117.712L161.302 112.114L166.557 106.516L159.939 99.4387Z" fill="#FEFEFE"/>
<path fill-rule="evenodd" clip-rule="evenodd" d="M63.0001 151.005C66.1016 151.005 68.8686 151.65 71.3034 152.94C73.7374 154.23 75.6287 156.026 76.9764 158.33C78.3235 160.635 78.997 163.264 78.997 166.221C78.997 169.177 78.3087 171.807 76.933 174.111C75.5565 176.415 73.6361 178.212 71.173 179.501C68.7095 180.79 65.899 181.436 62.7393 181.436H50.0889V151.005H63.0001ZM63.174 175.654C64.8555 175.654 66.3696 175.255 67.7166 174.458C69.0644 173.661 70.1151 172.553 70.8687 171.133C71.6224 169.713 71.9992 168.089 71.9992 166.264C71.9992 164.438 71.6004 162.801 70.8037 161.352C70.0066 159.903 68.9196 158.78 67.5427 157.983C66.167 157.185 64.6087 156.787 62.8697 156.787H56.9578V175.654H63.174Z" fill="#FEFEFE"/>
<path fill-rule="evenodd" clip-rule="evenodd" d="M90.0832 162.264C90.8947 160.816 91.953 159.715 93.2573 158.961C94.5605 158.207 96.0821 157.816 97.8215 157.787V164.09C97.5898 164.062 97.2417 164.047 96.7779 164.047C94.72 164.047 93.0906 164.605 91.8876 165.721C90.685 166.837 90.0832 168.321 90.0832 170.176V181.436H83.3882V158.048H90.0832V162.264Z" fill="#FEFEFE"/>
<path fill-rule="evenodd" clip-rule="evenodd" d="M111.516 157.831C115.283 157.831 118.144 158.918 120.101 161.092C122.057 163.264 123.035 166.293 123.035 170.176C123.035 170.872 123.021 171.409 122.992 171.785H106.212C106.589 173.262 107.312 174.415 108.385 175.241C109.458 176.067 110.747 176.48 112.255 176.48C113.355 176.48 114.413 176.27 115.427 175.849C116.442 175.429 117.355 174.813 118.166 174.002L121.688 177.567C120.499 178.899 119.057 179.921 117.363 180.631C115.667 181.341 113.775 181.696 111.69 181.696C109.226 181.696 107.073 181.204 105.234 180.218C103.393 179.233 101.973 177.842 100.974 176.045C99.9741 174.248 99.4741 172.177 99.4741 169.829C99.4741 167.452 99.9813 165.359 100.996 163.547C102.009 161.735 103.43 160.33 105.256 159.33C107.081 158.33 109.168 157.831 111.516 157.831ZM116.732 167.829C116.674 166.293 116.182 165.062 115.254 164.134C114.326 163.206 113.094 162.742 111.559 162.742C110.11 162.742 108.899 163.199 107.929 164.112C106.957 165.025 106.343 166.264 106.082 167.829H116.732Z" fill="#FEFEFE"/>
<path fill-rule="evenodd" clip-rule="evenodd" d="M140.995 181.436V178.696C140.213 179.682 139.198 180.436 137.953 180.957C136.707 181.479 135.272 181.74 133.648 181.74C131.186 181.74 129.229 181.066 127.78 179.718C126.331 178.372 125.607 176.61 125.607 174.436C125.607 172.234 126.382 170.517 127.932 169.285C129.482 168.053 131.678 167.423 134.518 167.394H140.952V166.96C140.952 165.714 140.539 164.75 139.713 164.069C138.886 163.388 137.678 163.047 136.083 163.047C133.909 163.047 131.591 163.728 129.128 165.09L127.042 160.483C128.896 159.556 130.635 158.874 132.258 158.439C133.88 158.004 135.663 157.787 137.605 157.787C140.734 157.787 143.162 158.526 144.886 160.005C146.61 161.483 147.487 163.54 147.516 166.177L147.56 181.436H140.995ZM135.518 176.958C136.909 176.958 138.112 176.625 139.126 175.958C140.14 175.292 140.749 174.451 140.952 173.436V171.351H135.692C134.387 171.351 133.424 171.561 132.801 171.981C132.178 172.401 131.867 173.074 131.867 174.002C131.867 174.9 132.193 175.617 132.844 176.154C133.496 176.69 134.387 176.958 135.518 176.958Z" fill="#FEFEFE"/>
<path fill-rule="evenodd" clip-rule="evenodd" d="M184.3 157.787C186.879 157.787 188.93 158.591 190.451 160.2C191.974 161.808 192.733 163.989 192.733 166.743V181.436H186.083V168.698C186.083 167.192 185.677 166.018 184.866 165.177C184.054 164.337 182.953 163.916 181.561 163.916C179.968 163.945 178.707 164.511 177.78 165.612C176.852 166.714 176.388 168.133 176.388 169.872V181.436H169.738V168.698C169.738 167.221 169.34 166.054 168.542 165.199C167.745 164.344 166.651 163.916 165.26 163.916C163.667 163.945 162.399 164.511 161.456 165.612C160.514 166.714 160.043 168.133 160.043 169.872V181.436H153.349V158.048H160.043V162.09C161.667 159.28 164.303 157.845 167.955 157.787C169.926 157.787 171.592 158.258 172.954 159.2C174.317 160.142 175.288 161.468 175.867 163.177C176.62 161.41 177.714 160.077 179.149 159.178C180.584 158.28 182.3 157.816 184.3 157.787Z" fill="#FEFEFE"/>
<path fill-rule="evenodd" clip-rule="evenodd" d="M198.647 151.005H206.299L215.775 169.698L225.165 151.005H232.772V181.436H226.599V160.874L217.949 178.35H213.515L204.82 160.874V181.436H198.647V151.005Z" fill="#FEFEFE"/>
<path fill-rule="evenodd" clip-rule="evenodd" d="M252.94 181.436V178.696C252.157 179.682 251.143 180.436 249.897 180.957C248.651 181.479 247.216 181.74 245.593 181.74C243.13 181.74 241.173 181.066 239.724 179.718C238.276 178.372 237.551 176.61 237.551 174.436C237.551 172.234 238.326 170.517 239.876 169.285C241.427 168.053 243.623 167.423 246.462 167.394H252.896V166.96C252.896 165.714 252.483 164.75 251.657 164.069C250.831 163.388 249.622 163.047 248.027 163.047C245.853 163.047 243.536 163.728 241.072 165.09L238.986 160.483C240.84 159.556 242.58 158.874 244.202 158.439C245.825 158.004 247.607 157.787 249.549 157.787C252.679 157.787 255.106 158.526 256.83 160.005C258.554 161.483 259.432 163.54 259.46 166.177L259.504 181.436H252.94ZM247.462 176.958C248.854 176.958 250.057 176.625 251.07 175.958C252.085 175.292 252.693 174.451 252.896 173.436V171.351H247.636C246.332 171.351 245.368 171.561 244.745 171.981C244.123 172.401 243.811 173.074 243.811 174.002C243.811 174.9 244.137 175.617 244.788 176.154C245.441 176.69 246.332 176.958 247.462 176.958Z" fill="#FEFEFE"/>
<path fill-rule="evenodd" clip-rule="evenodd" d="M279.769 180.131C278.9 180.653 277.936 181.052 276.878 181.327C275.821 181.602 274.756 181.74 273.683 181.74C271.509 181.74 269.742 181.117 268.38 179.87C267.017 178.624 266.336 176.842 266.336 174.523V163.699H263.076V159.091H266.336V152.658H272.988V159.091H279.335V163.743H272.988V173.393C272.988 175.19 273.698 176.089 275.118 176.089C276.104 176.089 277.189 175.799 278.378 175.219L279.769 180.131Z" fill="#FEFEFE"/>
<path fill-rule="evenodd" clip-rule="evenodd" d="M293.845 157.831C297.612 157.831 300.473 158.918 302.43 161.092C304.387 163.264 305.365 166.293 305.365 170.176C305.365 170.872 305.351 171.409 305.321 171.785H288.542C288.919 173.262 289.642 174.415 290.714 175.241C291.787 176.067 293.077 176.48 294.584 176.48C295.684 176.48 296.743 176.27 297.757 175.849C298.772 175.429 299.685 174.813 300.495 174.002L304.017 177.567C302.829 178.899 301.387 179.921 299.692 180.631C297.996 181.341 296.105 181.696 294.019 181.696C291.555 181.696 289.403 181.204 287.563 180.218C285.723 179.233 284.302 177.842 283.303 176.045C282.304 174.248 281.804 172.177 281.804 169.829C281.804 167.452 282.311 165.359 283.325 163.547C284.339 161.735 285.759 160.33 287.585 159.33C289.41 158.33 291.497 157.831 293.845 157.831ZM299.062 167.829C299.004 166.293 298.511 165.062 297.583 164.134C296.656 163.206 295.424 162.742 293.888 162.742C292.439 162.742 291.229 163.199 290.258 164.112C289.287 165.025 288.672 166.264 288.411 167.829H299.062Z" fill="#FEFEFE"/>
<path fill-rule="evenodd" clip-rule="evenodd" d="M206.535 145.142L206.605 119.314L240.136 88.7284C250.355 78.7799 236.253 61.9191 223.663 71.1827L206.526 86.7498L189.39 71.1827C178.73 62.051 162.498 76.2302 172.914 88.7284L190.357 106.034L179.433 117.279C169.932 109.75 167.106 107.29 159.141 98.8397C149.323 88.4132 149.161 74.3023 154.221 64.9759C162.177 51.0574 186.969 40.4604 206.526 61.9024C222.876 42.1899 248.272 49.6647 258.063 63.3976C263.992 70.1418 268.042 86.7861 255.777 99.9437L206.535 145.142Z" fill="#FEFEFE"/>
</svg>
