<svg width="365" height="218" viewBox="0 0 365 218" fill="none" xmlns="http://www.w3.org/2000/svg">
<path fill-rule="evenodd" clip-rule="evenodd" d="M160.15 102.184L181.463 118.17L168.209 131.852L168.116 131.813L152.105 148.196L103.316 99.165C86.2674 80.061 104.757 45.8079 134.801 53.7396L135.041 39.0784V19.6101L151.45 34.0007V63.902C150.863 72.5908 145.466 75.371 140.195 74.6922C137.788 74.5074 135.336 73.6075 133.359 72.0061C125.008 64.9951 109.804 75.1299 116.534 87.8684L152.105 124.402L156.257 120.457L161.513 114.859L166.768 109.26L160.15 102.184Z" fill="#FEFEFE"/>
<path fill-rule="evenodd" clip-rule="evenodd" d="M63.2101 153.75C66.3116 153.75 69.0786 154.395 71.5133 155.685C73.9473 156.975 75.8386 158.771 77.1864 161.075C78.5334 163.38 79.2069 166.009 79.2069 168.966C79.2069 171.922 78.5187 174.552 77.1429 176.856C75.7664 179.16 73.846 180.957 71.3829 182.245C68.9194 183.535 66.109 184.181 62.9493 184.181H50.2988V153.75H63.2101ZM63.3839 178.399C65.0654 178.399 66.5795 178 67.9265 177.203C69.2743 176.406 70.325 175.298 71.0787 173.878C71.8323 172.458 72.2091 170.834 72.2091 169.009C72.2091 167.183 71.8104 165.546 71.0137 164.097C70.2166 162.648 69.1296 161.525 67.7527 160.727C66.3769 159.93 64.8186 159.532 63.0797 159.532H57.1678V178.399H63.3839Z" fill="#FEFEFE"/>
<path fill-rule="evenodd" clip-rule="evenodd" d="M90.2937 165.009C91.1051 163.561 92.1634 162.46 93.4677 161.706C94.7709 160.952 96.2925 160.561 98.0319 160.532V166.835C97.8002 166.806 97.4521 166.792 96.9883 166.792C94.9304 166.792 93.3011 167.35 92.098 168.466C90.8954 169.582 90.2937 171.066 90.2937 172.921V184.181H83.5986V160.793H90.2937V165.009Z" fill="#FEFEFE"/>
<path fill-rule="evenodd" clip-rule="evenodd" d="M111.726 160.576C115.493 160.576 118.354 161.663 120.311 163.837C122.268 166.009 123.246 169.038 123.246 172.921C123.246 173.617 123.231 174.153 123.202 174.53H106.423C106.8 176.007 107.523 177.16 108.596 177.986C109.668 178.812 110.958 179.225 112.465 179.225C113.566 179.225 114.624 179.015 115.638 178.594C116.653 178.174 117.566 177.558 118.376 176.747L121.898 180.312C120.71 181.644 119.267 182.666 117.573 183.376C115.877 184.086 113.986 184.441 111.9 184.441C109.436 184.441 107.284 183.949 105.444 182.963C103.604 181.978 102.183 180.587 101.185 178.79C100.185 176.993 99.6846 174.921 99.6846 172.574C99.6846 170.197 100.192 168.104 101.206 166.292C102.219 164.48 103.64 163.075 105.466 162.075C107.291 161.075 109.378 160.576 111.726 160.576ZM116.942 170.574C116.884 169.038 116.392 167.807 115.464 166.879C114.537 165.951 113.305 165.487 111.77 165.487C110.32 165.487 109.11 165.944 108.139 166.857C107.168 167.77 106.553 169.009 106.292 170.574H116.942Z" fill="#FEFEFE"/>
<path fill-rule="evenodd" clip-rule="evenodd" d="M141.206 184.181V181.441C140.423 182.427 139.409 183.181 138.163 183.702C136.917 184.224 135.482 184.485 133.859 184.485C131.396 184.485 129.439 183.811 127.99 182.463C126.542 181.117 125.817 179.355 125.817 177.181C125.817 174.979 126.593 173.262 128.143 172.03C129.693 170.798 131.889 170.168 134.728 170.139H141.162V169.705C141.162 168.459 140.749 167.495 139.923 166.814C139.097 166.133 137.888 165.792 136.293 165.792C134.119 165.792 131.802 166.473 129.338 167.835L127.252 163.228C129.106 162.301 130.845 161.619 132.469 161.184C134.091 160.749 135.874 160.532 137.815 160.532C140.945 160.532 143.372 161.271 145.096 162.75C146.821 164.228 147.698 166.285 147.727 168.922L147.77 184.181H141.206ZM135.728 179.703C137.12 179.703 138.323 179.37 139.336 178.703C140.35 178.037 140.959 177.196 141.162 176.181V174.096H135.902C134.598 174.096 133.634 174.306 133.011 174.726C132.389 175.146 132.077 175.819 132.077 176.747C132.077 177.645 132.403 178.362 133.054 178.899C133.707 179.435 134.598 179.703 135.728 179.703Z" fill="#FEFEFE"/>
<path fill-rule="evenodd" clip-rule="evenodd" d="M184.51 160.532C187.089 160.532 189.14 161.336 190.661 162.945C192.183 164.553 192.943 166.734 192.943 169.488V184.181H186.293V171.443C186.293 169.937 185.887 168.763 185.076 167.922C184.264 167.082 183.162 166.661 181.771 166.661C180.178 166.69 178.917 167.256 177.989 168.357C177.062 169.459 176.598 170.878 176.598 172.617V184.181H169.948V171.443C169.948 169.966 169.55 168.799 168.752 167.944C167.955 167.089 166.861 166.661 165.47 166.661C163.877 166.69 162.609 167.256 161.666 168.357C160.724 169.459 160.253 170.878 160.253 172.617V184.181H153.559V160.793H160.253V164.835C161.877 162.025 164.513 160.59 168.165 160.532C170.136 160.532 171.802 161.003 173.164 161.945C174.527 162.887 175.498 164.213 176.077 165.922C176.83 164.155 177.924 162.822 179.359 161.923C180.794 161.025 182.51 160.561 184.51 160.532Z" fill="#FEFEFE"/>
<path fill-rule="evenodd" clip-rule="evenodd" d="M198.858 153.75H206.51L215.986 172.443L225.376 153.75H232.983V184.181H226.81V163.619L218.16 181.095H213.726L205.031 163.619V184.181H198.858V153.75Z" fill="#FEFEFE"/>
<path fill-rule="evenodd" clip-rule="evenodd" d="M253.15 184.181V181.441C252.368 182.427 251.353 183.181 250.108 183.702C248.861 184.224 247.426 184.485 245.803 184.485C243.34 184.485 241.384 183.811 239.935 182.463C238.486 181.117 237.762 179.355 237.762 177.181C237.762 174.979 238.537 173.262 240.087 172.03C241.638 170.798 243.834 170.168 246.673 170.139H253.107V169.705C253.107 168.459 252.693 167.495 251.867 166.814C251.041 166.133 249.832 165.792 248.238 165.792C246.064 165.792 243.747 166.473 241.282 167.835L239.197 163.228C241.051 162.301 242.79 161.619 244.413 161.184C246.035 160.749 247.818 160.532 249.76 160.532C252.889 160.532 255.317 161.271 257.04 162.75C258.765 164.228 259.642 166.285 259.671 168.922L259.714 184.181H253.15ZM247.673 179.703C249.064 179.703 250.267 179.37 251.281 178.703C252.295 178.037 252.904 177.196 253.107 176.181V174.096H247.847C246.542 174.096 245.579 174.306 244.955 174.726C244.333 175.146 244.022 175.819 244.022 176.747C244.022 177.645 244.348 178.362 244.999 178.899C245.651 179.435 246.542 179.703 247.673 179.703Z" fill="#FEFEFE"/>
<path fill-rule="evenodd" clip-rule="evenodd" d="M279.98 182.876C279.111 183.398 278.147 183.797 277.089 184.072C276.032 184.347 274.967 184.485 273.894 184.485C271.72 184.485 269.953 183.862 268.591 182.615C267.228 181.369 266.547 179.587 266.547 177.268V166.444H263.287V161.836H266.547V155.402H273.199V161.836H279.545V166.487H273.199V176.138C273.199 177.935 273.909 178.834 275.329 178.834C276.315 178.834 277.4 178.544 278.589 177.964L279.98 182.876Z" fill="#FEFEFE"/>
<path fill-rule="evenodd" clip-rule="evenodd" d="M294.055 160.576C297.822 160.576 300.683 161.663 302.64 163.837C304.597 166.009 305.575 169.038 305.575 172.921C305.575 173.617 305.56 174.153 305.531 174.53H288.752C289.129 176.007 289.852 177.16 290.924 177.986C291.997 178.812 293.287 179.225 294.794 179.225C295.894 179.225 296.953 179.015 297.967 178.594C298.981 178.174 299.895 177.558 300.705 176.747L304.227 180.312C303.039 181.644 301.597 182.666 299.902 183.376C298.206 184.086 296.315 184.441 294.229 184.441C291.765 184.441 289.613 183.949 287.773 182.963C285.933 181.978 284.512 180.587 283.513 178.79C282.514 176.993 282.014 174.921 282.014 172.574C282.014 170.197 282.521 168.104 283.535 166.292C284.549 164.48 285.969 163.075 287.795 162.075C289.62 161.075 291.707 160.576 294.055 160.576ZM299.272 170.574C299.214 169.038 298.721 167.807 297.793 166.879C296.866 165.951 295.634 165.487 294.098 165.487C292.649 165.487 291.439 165.944 290.468 166.857C289.497 167.77 288.882 169.009 288.621 170.574H299.272Z" fill="#FEFEFE"/>
<path fill-rule="evenodd" clip-rule="evenodd" d="M206.746 147.887L206.816 122.059L240.347 91.4734C250.565 81.5249 236.464 64.664 223.874 73.9277L206.736 89.4948L189.6 73.9277C178.94 64.7959 162.709 78.9752 173.125 91.4734L190.568 108.779L179.643 120.024C170.143 112.495 167.316 110.035 159.351 101.585C149.533 91.1581 149.371 77.0472 154.432 67.7209C162.387 53.8024 187.18 43.2054 206.736 64.6474C223.086 44.9349 248.482 52.4097 258.274 66.1426C264.203 72.8868 268.252 89.5311 255.987 102.689L206.746 147.887Z" fill="#FEFEFE"/>
</svg>
