<svg width="24" height="25" viewBox="0 0 24 25" fill="none" xmlns="http://www.w3.org/2000/svg">
<path d="M0 12.0913C0 18.7187 5.37258 24.0913 12 24.0913C18.6274 24.0913 24 18.7187 24 12.0913C24 5.46389 18.6274 0.0913086 12 0.0913086C5.37258 0.0913086 0 5.46389 0 12.0913Z" fill="#F58634"/>
<path d="M18 8.34131C17.55 8.56631 17.1 8.64131 16.575 8.71631C17.1 8.41631 17.475 7.96631 17.625 7.36631C17.175 7.66631 16.65 7.81631 16.05 7.96631C15.6 7.51631 14.925 7.21631 14.25 7.21631C12.675 7.21631 11.475 8.71631 11.85 10.2163C9.825 10.1413 8.025 9.16631 6.75 7.66631C6.075 8.79131 6.45 10.2163 7.5 10.9663C7.125 10.9663 6.75 10.8163 6.375 10.6663C6.375 11.7913 7.2 12.8413 8.325 13.1413C7.95 13.2163 7.575 13.2913 7.2 13.2163C7.5 14.1913 8.4 14.9413 9.525 14.9413C8.625 15.6163 7.275 15.9913 6 15.8413C7.125 16.5163 8.4 16.9663 9.75 16.9663C14.325 16.9663 16.875 13.1413 16.725 9.61631C17.25 9.31631 17.7 8.86631 18 8.34131Z" fill="white"/>
</svg>
