<svg width="20" height="20" viewBox="0 0 20 20" fill="none" xmlns="http://www.w3.org/2000/svg">
<path d="M0.554729 18.4369H2.43911V8.07278C2.43911 7.89934 2.57973 7.75871 2.75317 7.75871H7.15006V0.535255C7.15006 0.361813 7.29068 0.221191 7.46412 0.221191H15.6298C15.8032 0.221191 15.9438 0.361813 15.9438 0.535255V18.4369H18.7704C18.9439 18.4369 19.0845 18.5775 19.0845 18.7509C19.0845 18.9244 18.9439 19.065 18.7704 19.065H0.554729C0.381287 19.065 0.240665 18.9244 0.240665 18.7509C0.240665 18.5775 0.381287 18.4369 0.554729 18.4369ZM12.4891 18.4369H13.7454V15.6103C13.7454 15.4369 13.6048 15.2962 13.4313 15.2962H12.8032C12.6298 15.2962 12.4891 15.4369 12.4891 15.6103V18.4369ZM11.2329 8.07278V18.4369H11.861V15.6103C11.861 15.0899 12.2828 14.6681 12.8032 14.6681H13.4313C13.9517 14.6681 14.3735 15.0899 14.3735 15.6103V18.4369H15.3157V0.849318H7.77819V7.75871H10.9188C11.0923 7.75871 11.2329 7.89934 11.2329 8.07278ZM3.06724 18.4369H10.6048V8.38684H3.06724V18.4369Z" fill="#84829A"/>
<path d="M9.03398 4.61963H10.9184C11.0918 4.61963 11.2324 4.76025 11.2324 4.93369V6.81807C11.2324 6.99151 11.0918 7.13214 10.9184 7.13214H9.03398C8.86054 7.13214 8.71991 6.99151 8.71991 6.81807V4.93369C8.71991 4.76025 8.86054 4.61963 9.03398 4.61963ZM9.34804 6.50401H10.6043V5.24776H9.34804V6.50401Z" fill="#84829A"/>
<path d="M9.03398 1.47754H10.9184C11.0918 1.47754 11.2324 1.61816 11.2324 1.7916V3.67598C11.2324 3.84942 11.0918 3.99005 10.9184 3.99005H9.03398C8.86054 3.99005 8.71991 3.84942 8.71991 3.67598V1.7916C8.71991 1.61816 8.86054 1.47754 9.03398 1.47754ZM9.34804 3.36192H10.6043V2.10567H9.34804V3.36192Z" fill="#84829A"/>
<path d="M12.1746 4.61963H14.059C14.2324 4.61963 14.373 4.76025 14.373 4.93369V6.81807C14.373 6.99151 14.2324 7.13214 14.059 7.13214H12.1746C12.0012 7.13214 11.8605 6.99151 11.8605 6.81807V4.93369C11.8605 4.76025 12.0012 4.61963 12.1746 4.61963ZM12.4887 6.50401H13.7449V5.24776H12.4887V6.50401Z" fill="#84829A"/>
<path d="M12.1746 1.47754H14.059C14.2324 1.47754 14.373 1.61816 14.373 1.7916V3.67598C14.373 3.84942 14.2324 3.99005 14.059 3.99005H12.1746C12.0012 3.99005 11.8605 3.84942 11.8605 3.67598V1.7916C11.8605 1.61816 12.0012 1.47754 12.1746 1.47754ZM12.4887 3.36192H13.7449V2.10567H12.4887V3.36192Z" fill="#84829A"/>
<path d="M12.1746 7.75928H14.059C14.2324 7.75928 14.373 7.8999 14.373 8.07334V9.95772C14.373 10.1312 14.2324 10.2718 14.059 10.2718H12.1746C12.0012 10.2718 11.8605 10.1312 11.8605 9.95772V8.07334C11.8605 7.8999 12.0012 7.75928 12.1746 7.75928ZM12.4887 9.64366H13.7449V8.3874H12.4887V9.64366Z" fill="#84829A"/>
<path d="M12.1746 10.8999H14.059C14.2324 10.8999 14.373 11.0405 14.373 11.214V13.0983C14.373 13.2718 14.2324 13.4124 14.059 13.4124H12.1746C12.0012 13.4124 11.8605 13.2718 11.8605 13.0983V11.214C11.8605 11.0405 12.0012 10.8999 12.1746 10.8999ZM12.4887 12.7843H13.7449V11.528H12.4887V12.7843Z" fill="#84829A"/>
<path d="M6.20767 14.6668H4.32328C4.14984 14.6668 4.00922 14.5262 4.00922 14.3527V12.4684C4.00922 12.2949 4.14984 12.1543 4.32328 12.1543H6.20767C6.38111 12.1543 6.52173 12.2949 6.52173 12.4684V14.3527C6.52173 14.5262 6.38111 14.6668 6.20767 14.6668ZM5.8936 12.7824H4.63735V14.0387H5.8936V12.7824Z" fill="#84829A"/>
<path d="M6.20767 11.5272H4.32328C4.14984 11.5272 4.00922 11.3865 4.00922 11.2131V9.32871C4.00922 9.15527 4.14984 9.01465 4.32328 9.01465H6.20767C6.38111 9.01465 6.52173 9.15527 6.52173 9.32871V11.2131C6.52173 11.3865 6.38111 11.5272 6.20767 11.5272ZM5.8936 9.64278H4.63735V10.899H5.8936V9.64278Z" fill="#84829A"/>
<path d="M6.20767 17.8079H4.32328C4.14984 17.8079 4.00922 17.6673 4.00922 17.4939V15.6095C4.00922 15.436 4.14984 15.2954 4.32328 15.2954H6.20767C6.38111 15.2954 6.52173 15.436 6.52173 15.6095V17.4939C6.52173 17.6673 6.38111 17.8079 6.20767 17.8079ZM5.8936 15.9235H4.63735V17.1798H5.8936V15.9235Z" fill="#84829A"/>
<path d="M9.34853 14.6668H7.46415C7.29071 14.6668 7.15009 14.5262 7.15009 14.3527V12.4684C7.15009 12.2949 7.29071 12.1543 7.46415 12.1543H9.34853C9.52198 12.1543 9.6626 12.2949 9.6626 12.4684V14.3527C9.6626 14.5262 9.52198 14.6668 9.34853 14.6668ZM9.03447 12.7824H7.77822V14.0387H9.03447V12.7824Z" fill="#84829A"/>
<path d="M9.34853 11.5272H7.46415C7.29071 11.5272 7.15009 11.3865 7.15009 11.2131V9.32871C7.15009 9.15527 7.29071 9.01465 7.46415 9.01465H9.34853C9.52198 9.01465 9.6626 9.15527 9.6626 9.32871V11.2131C9.6626 11.3865 9.52198 11.5272 9.34853 11.5272ZM9.03447 9.64278H7.77822V10.899H9.03447V9.64278Z" fill="#84829A"/>
<path d="M9.34853 17.8079H7.46415C7.29071 17.8079 7.15009 17.6673 7.15009 17.4939V15.6095C7.15009 15.436 7.29071 15.2954 7.46415 15.2954H9.34853C9.52198 15.2954 9.6626 15.436 9.6626 15.6095V17.4939C9.6626 17.6673 9.52198 17.8079 9.34853 17.8079ZM9.03447 15.9235H7.77822V17.1798H9.03447V15.9235Z" fill="#84829A"/>
</svg>
