<svg width="25" height="23" viewBox="0 0 25 23" fill="none" xmlns="http://www.w3.org/2000/svg">
<path d="M22.19 2.28804C20.9717 0.978484 19.2644 0.233368 17.4758 0.230606C15.6857 0.232678 13.9767 0.977399 12.7565 2.2872L12.3406 2.72664L11.9248 2.2872C9.50351 -0.318736 5.42811 -0.468391 2.82222 1.95287C2.70675 2.0602 2.59523 2.17168 2.48789 2.2872C-0.0806001 5.05763 -0.0806001 9.33921 2.48789 12.1096L11.7295 21.8555C12.0492 22.193 12.582 22.2075 12.9196 21.8878C12.9306 21.8773 12.9414 21.8665 12.9518 21.8555L22.1901 12.1096C24.7584 9.33951 24.7584 5.05817 22.19 2.28804ZM20.9719 10.9504H20.9711L12.3406 20.0531L3.7094 10.9504C1.74722 8.83357 1.74722 5.56243 3.7094 3.44557C5.49129 1.51426 8.5015 1.39317 10.4328 3.17506C10.5266 3.26158 10.6168 3.3518 10.7033 3.44557L11.7295 4.52817C12.0677 4.86418 12.6136 4.86418 12.9518 4.52817L13.978 3.4464C15.7599 1.5151 18.7701 1.394 20.7014 3.1759C20.7952 3.26242 20.8854 3.35264 20.9719 3.4464C22.9512 5.56663 22.9657 8.84373 20.9719 10.9504Z" fill="#3D2D3D"/>
</svg>
