<svg width="44" height="44" viewBox="0 0 44 44" fill="none" xmlns="http://www.w3.org/2000/svg">
<circle cx="21.973" cy="21.8668" r="21.1993" fill="#F5F5F5"/>
<g clip-path="url(#clip0_174_4393)">
<path d="M29.8105 14.9789C29.3761 14.8518 18.7493 13.7937 15.0172 18.8358C13.3643 21.0695 13.3395 24.1314 14.9344 27.936C14.5298 28.7757 14.1757 29.6603 13.887 30.5936C13.7993 30.8773 13.958 31.178 14.2413 31.2654C14.2941 31.2819 14.3476 31.2896 14.4004 31.2896C14.6294 31.2896 14.8421 31.1416 14.9131 30.9112C17.7575 21.7149 27.0015 17.2659 29.8363 16.1419C30.1121 16.0325 30.4808 15.1751 29.8105 14.9789Z" fill="#84829A"/>
<path d="M16.6404 29.0871C18.179 29.7326 19.7173 30.0634 21.1479 30.0634C22.4338 30.0634 23.633 29.799 24.6663 29.2629C26.746 28.1841 28.0169 26.1205 28.3414 23.2945C28.672 20.4144 29.0836 18.6104 29.427 17.5068C26.3704 18.9168 19.8166 22.5714 16.6404 29.0871Z" fill="#84829A"/>
</g>
<defs>
<clipPath id="clip0_174_4393">
<rect width="16.4883" height="16.4883" fill="white" transform="translate(13.729 14.8003)"/>
</clipPath>
</defs>
</svg>
