<svg width="43" height="44" viewBox="0 0 43 44" fill="none" xmlns="http://www.w3.org/2000/svg">
<circle cx="21.5714" cy="21.8668" r="21.1993" fill="#F5F5F5"/>
<g clip-path="url(#clip0_174_4407)">
<path d="M28.0504 13.6235C27.9589 13.6235 27.8687 13.6448 27.7869 13.6856L23.3245 15.9174L18.2786 13.6745C18.2703 13.6709 18.2609 13.6703 18.2521 13.6668C18.2294 13.6583 18.2061 13.6512 18.1826 13.6456C18.1591 13.6393 18.1353 13.6344 18.1113 13.6309C18.0635 13.627 18.0154 13.627 17.9677 13.6309C17.9436 13.6344 17.9198 13.6393 17.8964 13.6456C17.8728 13.6512 17.8496 13.6583 17.8269 13.6668C17.8181 13.6703 17.8087 13.6709 17.8004 13.6745L12.5007 16.0299C12.2879 16.1244 12.1508 16.3353 12.1509 16.5681V29.523C12.151 29.7223 12.2518 29.9079 12.4188 30.0165C12.5859 30.1253 12.7966 30.1421 12.9788 30.0612L18.0395 27.8118L23.1001 30.0612C23.109 30.0648 23.1184 30.0612 23.1272 30.0666C23.2698 30.1303 23.4334 30.1267 23.573 30.0566C23.5824 30.0525 23.593 30.0566 23.6024 30.0501L28.3133 27.6946C28.5129 27.5949 28.639 27.3908 28.6389 27.1676V14.2127C28.6391 13.8875 28.3756 13.6237 28.0504 13.6235ZM17.4506 26.7848L13.3286 28.6168V16.9509L17.4506 15.1189V26.7848ZM22.7504 28.6168L18.6283 26.7848V15.1189L22.7504 16.9508V28.6168ZM27.4612 26.8037L23.9281 28.5702V16.932L27.4612 15.1654V26.8037Z" fill="#84829A"/>
</g>
<defs>
<clipPath id="clip0_174_4407">
<rect width="16.4883" height="16.4883" fill="white" transform="translate(12.1494 13.6216)"/>
</clipPath>
</defs>
</svg>
