<svg width="43" height="44" viewBox="0 0 43 44" fill="none" xmlns="http://www.w3.org/2000/svg">
<circle cx="21.2801" cy="21.8668" r="21.1993" fill="#F5F5F5"/>
<path d="M27.5733 16.2634L20.1329 23.7312C20.0476 23.6818 19.958 23.6404 19.865 23.6076L14.9529 21.945C14.8043 21.9078 14.6725 21.822 14.5782 21.7012C14.484 21.5805 14.4329 21.4317 14.4329 21.2786C14.4329 21.1255 14.484 20.9767 14.5782 20.856C14.6725 20.7352 14.8043 20.6494 14.9529 20.6122L27.1405 16.2771C27.2201 16.2501 27.3037 16.2362 27.3878 16.2359C27.4507 16.2349 27.5134 16.2442 27.5733 16.2634Z" fill="#84829A"/>
<path d="M28.0472 17.1848L23.7121 29.3861C23.6643 29.5283 23.5713 29.651 23.4472 29.7353C23.3232 29.8197 23.1749 29.8611 23.0251 29.8533C22.8736 29.8602 22.724 29.8168 22.5997 29.7298C22.4754 29.6428 22.3835 29.5172 22.3381 29.3724L20.703 24.4602C20.6702 24.3673 20.6288 24.2776 20.5793 24.1923L28.0609 16.752C28.1031 16.8939 28.0983 17.0458 28.0472 17.1848Z" fill="#84829A"/>
</svg>
