<svg width="21" height="20" viewBox="0 0 21 20" fill="none" xmlns="http://www.w3.org/2000/svg">
<path d="M10.96 6.29C10.8649 6.19896 10.7528 6.12759 10.63 6.08C10.3865 5.97998 10.1135 5.97998 9.87 6.08C9.74725 6.12759 9.6351 6.19896 9.54 6.29L6.54 9.29C6.3517 9.4783 6.24591 9.73369 6.24591 10C6.24591 10.2663 6.3517 10.5217 6.54 10.71C6.7283 10.8983 6.9837 11.0041 7.25 11.0041C7.5163 11.0041 7.7717 10.8983 7.96 10.71L9.25 9.41L9.25 13C9.25 13.2652 9.35536 13.5196 9.54289 13.7071C9.73043 13.8946 9.98478 14 10.25 14C10.5152 14 10.7696 13.8946 10.9571 13.7071C11.1446 13.5196 11.25 13.2652 11.25 13L11.25 9.41L12.54 10.71C12.633 10.8037 12.7436 10.8781 12.8654 10.9289C12.9873 10.9797 13.118 11.0058 13.25 11.0058C13.382 11.0058 13.5127 10.9797 13.6346 10.9289C13.7564 10.8781 13.867 10.8037 13.96 10.71C14.0537 10.617 14.1281 10.5064 14.1789 10.3846C14.2297 10.2627 14.2558 10.132 14.2558 10C14.2558 9.86798 14.2297 9.73728 14.1789 9.61542C14.1281 9.49356 14.0537 9.38296 13.96 9.29L10.96 6.29ZM10.25 -2.94047e-06C8.27219 -2.76756e-06 6.33879 0.586488 4.6943 1.6853C3.04981 2.78412 1.76808 4.3459 1.0112 6.17316C0.254327 8.00042 0.0562926 10.0111 0.442146 11.9509C0.827999 13.8907 1.78041 15.6725 3.17893 17.0711C4.57746 18.4696 6.35929 19.422 8.2991 19.8078C10.2389 20.1937 12.2496 19.9957 14.0768 19.2388C15.9041 18.4819 17.4659 17.2002 18.5647 15.5557C19.6635 13.9112 20.25 11.9778 20.25 10C20.25 7.34783 19.1964 4.80429 17.3211 2.92893C16.3925 2.00034 15.2901 1.26375 14.0768 0.7612C12.8636 0.258654 11.5632 -3.05527e-06 10.25 -2.94047e-06ZM10.25 18C8.66775 18 7.12103 17.5308 5.80544 16.6518C4.48984 15.7727 3.46446 14.5233 2.85896 13.0615C2.25346 11.5997 2.09503 9.99112 2.40372 8.43927C2.7124 6.88743 3.47432 5.46196 4.59314 4.34314C5.71196 3.22432 7.13743 2.4624 8.68928 2.15371C10.2411 1.84503 11.8497 2.00346 13.3115 2.60896C14.7733 3.21446 16.0227 4.23984 16.9018 5.55543C17.7808 6.87103 18.25 8.41774 18.25 10C18.25 12.1217 17.4071 14.1566 15.9069 15.6569C14.4066 17.1571 12.3717 18 10.25 18Z" fill="#BBC3CF"/>
</svg>
