<svg width="32" height="33" viewBox="0 0 32 33" fill="none" xmlns="http://www.w3.org/2000/svg">
<path d="M17.2928 25.9422C17.1054 25.7547 17.0001 25.5003 17.0001 25.2351C17.0001 24.9699 17.1054 24.7156 17.2928 24.528L24.5858 17.2351H5C4.73478 17.2351 4.48043 17.1298 4.29289 16.9422C4.10536 16.7547 4 16.5003 4 16.2351C4 15.9699 4.10536 15.7156 4.29289 15.528C4.48043 15.3405 4.73478 15.2351 5 15.2351H24.5858L17.2928 7.94222C17.2 7.84936 17.1263 7.73911 17.0761 7.61778C17.0258 7.49645 17 7.36641 17 7.23509C17 7.10376 17.0259 6.97372 17.0761 6.8524C17.1264 6.73107 17.2 6.62083 17.2929 6.52798C17.3858 6.43512 17.496 6.36146 17.6173 6.31121C17.7387 6.26096 17.8687 6.2351 18 6.23511C18.1314 6.23511 18.2614 6.26099 18.3827 6.31125C18.5041 6.36151 18.6143 6.43517 18.7072 6.52804L27.7072 15.528C27.7104 15.5313 27.7131 15.5349 27.7163 15.5382C27.7361 15.5584 27.7552 15.5792 27.7732 15.6011C27.7832 15.6133 27.792 15.6262 27.8014 15.6388C27.8115 15.6524 27.822 15.6657 27.8315 15.6798C27.8412 15.6943 27.8497 15.7094 27.8586 15.7244C27.8664 15.7375 27.8746 15.7502 27.8818 15.7637C27.8898 15.7787 27.8967 15.7942 27.9039 15.8095C27.9107 15.8238 27.9178 15.8379 27.9238 15.8524C27.9299 15.8672 27.9349 15.8823 27.9403 15.8974C27.9459 15.9131 27.952 15.9287 27.9569 15.9448C27.9614 15.9598 27.9647 15.975 27.9685 15.9901C27.9727 16.0066 27.9773 16.023 27.9806 16.0398C27.9841 16.0572 27.9861 16.0748 27.9887 16.0923C27.9908 16.1071 27.9936 16.1215 27.995 16.1364C27.9983 16.1693 28 16.2022 28 16.2351C28 16.2681 27.9983 16.301 27.995 16.3338C27.9936 16.3487 27.9908 16.3632 27.9887 16.3779C27.9862 16.3955 27.9841 16.413 27.9806 16.4305C27.9773 16.4473 27.9727 16.4636 27.9685 16.4801C27.9647 16.4953 27.9614 16.5105 27.9569 16.5254C27.952 16.5415 27.9459 16.5572 27.9403 16.5729C27.9349 16.5879 27.9299 16.6031 27.9238 16.6178C27.9178 16.6324 27.9106 16.6464 27.9039 16.6607C27.8967 16.676 27.8898 16.6916 27.8818 16.7066C27.8746 16.7201 27.8664 16.7328 27.8586 16.7459C27.8497 16.7608 27.8412 16.776 27.8315 16.7905C27.822 16.8046 27.8115 16.8179 27.8014 16.8314C27.792 16.844 27.7832 16.857 27.7732 16.8692C27.7549 16.8914 27.7354 16.9126 27.7153 16.9333C27.7124 16.9361 27.7101 16.9394 27.7072 16.9422L18.7072 25.9422C18.6143 26.0351 18.504 26.1088 18.3827 26.159C18.2614 26.2093 18.1313 26.2351 18 26.2351C17.8687 26.2351 17.7386 26.2093 17.6173 26.159C17.496 26.1088 17.3857 26.0351 17.2928 25.9422Z" fill="#F58634"/>
</svg>
